<svg xmlns="http://www.w3.org/2000/svg" viewBox="0 0 253 32" focusable="false" class="chakra-icon chakra-icon css-1msao2s" alt="Danki Code">
<path fill-rule="evenodd" clip-rule="evenodd" d="M123.299 31.6137H118.656V9.45461H123.299V31.6137ZM118.293 4.08928C118.443 4.44729 118.665 4.77087 118.944 5.0401C119.524 5.62328 120.217 5.91664 121.019 5.91664C121.818 5.91664 122.512 5.62328 123.09 5.0401C123.672 4.45869 123.961 3.7624 123.961 2.96009C123.961 2.15247 123.673 1.45795 123.09 0.874772C122.512 0.293358 121.82 0 121.019 0C120.217 0 119.524 0.291591 118.944 0.874772C118.363 1.45619 118.073 2.15247 118.073 2.95832C118.069 3.34639 118.144 3.73127 118.293 4.08928ZM140.506 28.8021C142.717 30.898 145.357 31.9477 148.427 31.9477C151.935 31.9477 155.033 30.587 157.714 27.8655L154.978 24.8665C153.152 26.7556 151.21 27.6993 149.15 27.6993C147.091 27.6993 145.357 26.9907 143.947 25.5751C142.538 24.1578 141.832 22.4313 141.832 20.3884C141.832 18.3472 142.544 16.6807 143.968 15.3907C145.335 14.121 147.139 13.4272 149.005 13.4538C150.94 13.4538 152.861 14.2862 154.769 15.9544L157.507 12.579C155.211 10.2746 152.407 9.12237 149.089 9.12237C145.771 9.12237 142.957 10.1845 140.651 12.3087C138.341 14.4329 137.189 17.1879 137.189 20.5757C137.189 23.9634 138.294 26.7062 140.506 28.8021ZM171.022 27.7824C169.003 27.7824 167.338 27.1091 166.025 25.7625L166.023 25.7642C164.71 24.4176 164.053 22.6751 164.053 20.5368C164.053 18.4003 164.71 16.656 166.023 15.3076C167.336 13.961 169.001 13.2895 171.021 13.2895C173.035 13.2895 174.705 13.961 176.018 15.3059C177.331 16.6542 177.985 18.3967 177.985 20.535C177.985 22.6734 177.331 24.4159 176.018 25.7625C174.705 27.1109 173.037 27.7824 171.022 27.7824ZM171.021 31.9477C174.338 31.9477 177.102 30.8468 179.312 28.6377C181.523 26.4305 182.629 23.7302 182.629 20.5368C182.629 17.3435 181.523 14.6449 179.312 12.4359C177.1 10.2286 174.338 9.1259 171.021 9.1259C167.702 9.1259 164.938 10.2286 162.727 12.4359C160.515 14.6432 159.412 17.3435 159.412 20.5368C159.412 23.7302 160.515 26.4287 162.727 28.6377C164.938 30.845 167.702 31.9477 171.021 31.9477ZM191.506 25.8243C190.153 24.4918 189.474 22.7617 189.474 20.6393C189.474 18.5151 190.14 16.7426 191.466 15.3288C192.791 13.9115 194.38 13.2046 196.234 13.2046C198.086 13.2046 199.646 13.9115 200.918 15.3288C202.189 16.7426 202.827 18.5081 202.827 20.6181C202.827 22.7282 202.189 24.4565 200.918 25.8031C199.646 27.1515 198.098 27.823 196.274 27.823C194.449 27.823 192.86 27.1568 191.506 25.8243ZM184.831 20.452C184.831 23.8945 185.865 26.6708 187.94 28.7809V28.7826C190.013 30.8927 192.445 31.9495 195.239 31.9495C198.526 31.9495 201.028 30.7266 202.742 28.2825V31.6155H207.388V0.710421H202.742V12.8689C200.945 10.3718 198.577 9.12237 195.631 9.12237C192.687 9.12237 190.153 10.1509 188.021 12.2044C185.892 14.2597 184.831 17.0077 184.831 20.452ZM215.512 21.4505C215.486 21.2846 215.471 21.0219 215.471 20.6605C215.471 18.3826 216.226 16.6065 217.732 15.3288C219.239 14.0511 220.902 13.4132 222.728 13.4132C225.133 13.4132 226.805 14.3286 227.747 16.1612L215.512 21.4505ZM229.986 11.6424C227.994 9.9618 225.492 9.12237 222.48 9.12237C220.595 9.11695 218.735 9.55142 217.048 10.3912C215.334 11.2413 213.897 12.5578 212.736 14.348C211.576 16.14 210.993 18.2165 210.993 20.5757C210.993 23.9917 212.112 26.7415 214.351 28.8233C216.592 30.9033 219.273 31.946 222.397 31.946C225.963 31.946 229.058 30.587 231.686 27.8637L228.946 24.8241C227.345 26.768 225.306 27.74 222.832 27.74C220.358 27.74 218.401 26.8511 216.965 25.075L233.052 18.2854L233.011 18.2023C232.983 15.5091 231.974 13.3213 229.986 11.6424ZM26.4394 25.8243C25.0857 24.4918 24.4071 22.7617 24.4071 20.6393C24.4071 18.5151 25.0734 16.7426 26.3988 15.3288C27.7242 13.9115 29.3147 13.2046 31.1667 13.2046C33.0188 13.2046 34.5792 13.9115 35.8516 15.3288C37.124 16.7426 37.7602 18.5081 37.7602 20.6181C37.7602 22.7282 37.124 24.4565 35.8516 25.8031C34.5792 27.1515 33.0311 27.823 31.2074 27.823C29.3818 27.823 27.7931 27.1568 26.4394 25.8243ZM19.7646 20.452C19.7646 23.8945 20.7985 26.6708 22.8732 28.7809L22.8714 28.7826C24.9444 30.8927 27.376 31.9495 30.17 31.9495C33.457 31.9495 35.9594 30.7266 37.6754 28.2825V31.6155H42.3196V0.710423H37.6754V12.8689C35.8764 10.3718 33.5083 9.12237 30.5623 9.12237C27.6217 9.12237 25.084 10.1509 22.9562 12.2044C20.825 14.2597 19.7646 17.0077 19.7646 20.452ZM51.8149 25.8243C50.4612 24.4918 49.7826 22.7617 49.7826 20.6393C49.7826 18.5151 50.4471 16.7426 51.7742 15.3288C53.0996 13.9115 54.6884 13.2046 56.5422 13.2046C58.3925 13.2046 59.9547 13.9115 61.2253 15.3288C62.4977 16.7426 63.1339 18.5081 63.1339 20.6181C63.1339 22.7282 62.4977 24.4565 61.2253 25.8031C59.9547 27.1515 58.4066 27.823 56.5828 27.823C54.7573 27.823 53.1686 27.1568 51.8149 25.8243ZM45.1401 20.452C45.1401 23.8945 46.1739 26.6708 48.2486 28.7809V28.7826C50.3216 30.8927 52.7533 31.9495 55.5472 31.9495C56.9274 31.9495 58.3023 31.6084 59.6701 30.928C61.0302 30.2559 62.1944 29.245 63.0508 27.9927V31.6155H67.6951V9.45461H63.0526V13.2859C61.1705 10.5114 58.7812 9.12237 55.8777 9.12237C52.9777 9.12237 50.4612 10.1509 48.3299 12.2044C46.2004 14.2597 45.1401 17.0077 45.1401 20.452ZM76.5683 31.6137V19.6179C76.5683 17.5644 77.1638 16.0021 78.3514 14.933C79.5425 13.8638 80.9368 13.3301 82.5397 13.3301C85.9133 13.3301 87.5992 15.3695 87.5992 19.4517V31.6137H92.2435V18.0362C92.2435 15.1486 91.4747 12.9413 89.9425 11.4127C88.4086 9.88757 86.3958 9.12237 83.9093 9.12237C82.4126 9.11565 80.9427 9.51903 79.6591 10.2887C78.3553 11.0557 77.2864 12.1649 76.5683 13.4962V9.45461H71.9276V31.6137H76.5683ZM96.2232 31.6137H100.866V25.3242L104.225 21.9099L110.776 31.6137H116.414L107.419 18.2447L115.792 9.45461H109.822L100.866 18.8668V0.706889H96.2232V31.6137Z" fill="white"></path><path d="M14.389 14.7308L6.30649 21.803L14.389 28.8751L11.6543 32.0005L1.78614 23.3658L0 21.803L11.6543 11.6055L14.389 14.7308Z" fill="#7855C3"></path><path d="M246.51 21.803L238.427 28.8751L241.162 32.0005L252.816 21.803L251.03 20.2401L241.162 11.6055L238.427 14.7308L246.51 21.803Z" fill="#7855C3"></path><path d="M127.321 28.2824C127.321 29.3109 127.671 30.1768 128.378 30.8837H128.379C129.083 31.5924 129.945 31.9476 130.97 31.9476C131.99 31.9476 132.856 31.5906 133.563 30.8837C134.266 30.1768 134.619 29.3091 134.619 28.2824C134.619 27.2539 134.264 26.3862 133.563 25.6775C132.856 24.9706 131.99 24.6172 130.97 24.6172C129.947 24.6172 129.083 24.9706 128.379 25.6775C127.672 26.3862 127.321 27.2539 127.321 28.2824Z" fill="#7855C3"></path>
</svg>